<svg viewbox="0 0 84 84" width="84" height="84" version="1.1" xmlns="http://www.w3.org/2000/svg">
  <style>
    .bubble-stroke {
      fill: none;
      stroke: black;
      stroke-width: 3;
      stroke-linejoin: round;
    }

      .bubble-foreground {
      fill: #3EA3E6;
    }

    .bubble {
      fill: #3791CC;
    }

    .phone {
      fill: #fff;
    }
  </style>
  <g class="bubble">
   <path d="M 13,55 C 12,59 7,64 0,67 C 5,67 20,72 30,62 Z" />
   <ellipse cx="45" cy="42" rx="38" ry="28" />
  </g>
  <g class="bubble-foreground">
   <path d="M 12,53 C 11,57 7,64 0,67 C 4,65 19,70 29,60 Z" />
   <ellipse cx="43" cy="39" rx="38" ry="27" />
  </g>
  <g class="phone">
    <path d="M 30,21 C 25,31 24,32 37,45 C 50,58 51,57 61,52 C 65,50 53,41 51,43 C 47,47 47,47 41,41 C 35,35 35,35 39,31 C 41,29 32,17 30,21 Z" />
  </g>
</svg>
